<?xml version="1.0" encoding="UTF-8" standalone="no"?>
<!-- Created with Inkscape (http://www.inkscape.org/) -->

<svg
   width="100"
   height="100"
   viewBox="0 0 100 100"
   version="1.1"
   id="main-svg"
   inkscape:export-filename="D:\temp\temp.png"
   xml:space="preserve"
   inkscape:version="1.3.2 (091e20e, 2023-11-25, custom)"
   sodipodi:docname="Quinn shield sword.svg"
   xmlns:inkscape="http://www.inkscape.org/namespaces/inkscape"
   xmlns:sodipodi="http://sodipodi.sourceforge.net/DTD/sodipodi-0.dtd"
   xmlns="http://www.w3.org/2000/svg"
   xmlns:svg="http://www.w3.org/2000/svg"><defs
     id="defs1"><inkscape:path-effect
       effect="spiro"
       id="path-effect29"
       is_visible="true"
       lpeversion="1" /><filter
       style="color-interpolation-filters:sRGB;"
       inkscape:label="Blur"
       id="filter18"
       x="-0.025235142"
       y="-0.026533653"
       width="1.0504703"
       height="1.0530673"><feGaussianBlur
         stdDeviation="1 1"
         result="blur"
         id="feGaussianBlur18" /></filter><filter
       style="color-interpolation-filters:sRGB;"
       inkscape:label="Blur"
       id="filter19"
       x="-0.025235143"
       y="-0.026533653"
       width="1.0504703"
       height="1.0530673"><feGaussianBlur
         stdDeviation="1 1"
         result="blur"
         id="feGaussianBlur19" /></filter><clipPath
       clipPathUnits="userSpaceOnUse"
       id="clipPath19"><path
         sodipodi:type="star"
         style="opacity:1;fill:none;stroke:#000000;stroke-width:2;stroke-linejoin:round;stroke-dasharray:none;stroke-opacity:1"
         id="path20"
         inkscape:flatsided="false"
         sodipodi:sides="5"
         sodipodi:cx="50"
         sodipodi:cy="45"
         sodipodi:r1="50"
         sodipodi:r2="19.079449"
         sodipodi:arg1="-1.5707963"
         sodipodi:arg2="-0.94247777"
         inkscape:rounded="0"
         inkscape:randomized="0"
         d="M 50.000001,-5 61.214619,29.564402 97.552826,29.549152 68.145634,50.895874 79.389262,85.450851 50,64.079449 20.610736,85.450849 31.854366,50.895873 2.4471746,29.549149 38.785382,29.564401 Z"
         inkscape:transform-center-y="-4.7745751" /></clipPath><clipPath
       clipPathUnits="userSpaceOnUse"
       id="clipPath20"><path
         sodipodi:type="star"
         style="opacity:1;fill:none;stroke:#000000;stroke-width:2;stroke-linejoin:round;stroke-dasharray:none;stroke-opacity:1"
         id="path21"
         inkscape:flatsided="false"
         sodipodi:sides="5"
         sodipodi:cx="50"
         sodipodi:cy="45"
         sodipodi:r1="50"
         sodipodi:r2="19.079449"
         sodipodi:arg1="-1.5707963"
         sodipodi:arg2="-0.94247777"
         inkscape:rounded="0"
         inkscape:randomized="0"
         d="M 50.000001,-5 61.214619,29.564402 97.552826,29.549152 68.145634,50.895874 79.389262,85.450851 50,64.079449 20.610736,85.450849 31.854366,50.895873 2.4471746,29.549149 38.785382,29.564401 Z"
         inkscape:transform-center-y="-4.7745751"
         transform="translate(-1e-6,10)" /></clipPath><filter
       style="color-interpolation-filters:sRGB;"
       inkscape:label="Blur"
       id="filter24"
       x="-0.048000001"
       y="-0.011428571"
       width="1.096"
       height="1.0228571"><feGaussianBlur
         stdDeviation="0.40000000000000002 0.5"
         result="blur"
         id="feGaussianBlur24" /></filter><clipPath
       clipPathUnits="userSpaceOnUse"
       id="clipPath24"><path
         style="font-variation-settings:normal;opacity:1;vector-effect:none;fill:#bebebe;fill-opacity:0.854902;fill-rule:evenodd;stroke:#000000;stroke-width:0.5;stroke-linecap:butt;stroke-linejoin:miter;stroke-miterlimit:4;stroke-dasharray:none;stroke-dashoffset:0;stroke-opacity:1;-inkscape-stroke:none;stop-color:#000000;stop-opacity:1"
         d="M 56.25,95 52.5,17.5 H 60 v -5 h -7.5 v -15 h -5 v 15 H 40 v 5 h 7.5 L 43.75,95 50,102.5 Z"
         id="path25"
         sodipodi:nodetypes="cccccccccccccc" /></clipPath><filter
       style="color-interpolation-filters:sRGB;"
       inkscape:label="Blur"
       id="filter29"
       x="-0.14206509"
       y="-0.25531594"
       width="1.2841302"
       height="1.5106319"><feGaussianBlur
         stdDeviation="1 1.5"
         result="blur"
         id="feGaussianBlur29" /></filter><filter
       style="color-interpolation-filters:sRGB;"
       inkscape:label="Blur"
       id="filter30"
       x="-0.068571429"
       y="-0.064"
       width="1.1371429"
       height="1.128"><feGaussianBlur
         stdDeviation="1 1"
         result="blur"
         id="feGaussianBlur30" /></filter><filter
       style="color-interpolation-filters:sRGB;"
       inkscape:label="Blur"
       id="filter31"
       x="-0.048"
       y="-0.073846154"
       width="1.096"
       height="1.1476923"><feGaussianBlur
         stdDeviation="0.5 1"
         result="blur"
         id="feGaussianBlur31" /></filter></defs><sodipodi:namedview
     id="base"
     pagecolor="#ffffff"
     bordercolor="#666666"
     borderopacity="1.0"
     inkscape:pageopacity="0.0"
     inkscape:pageshadow="2"
     inkscape:zoom="4.8585546"
     inkscape:cx="35.092742"
     inkscape:cy="47.236271"
     inkscape:document-units="px"
     showgrid="true"
     units="px"
     inkscape:current-layer="main-svg"
     inkscape:showpageshadow="2"
     inkscape:pagecheckerboard="0"
     inkscape:deskcolor="#d1d1d1"
     showguides="true"><inkscape:grid
       type="xygrid"
       id="main-grid"
       spacingx="2.5"
       spacingy="2.5"
       originx="0"
       originy="0"
       units="px"
       visible="true" /><sodipodi:guide
       position="55,105"
       orientation="-1,0"
       id="guide26"
       inkscape:locked="false"
       inkscape:label=""
       inkscape:color="rgb(0,134,229)" /></sodipodi:namedview><g
     id="g26"
     transform="rotate(-37.6,50,50)"><path
       style="font-variation-settings:normal;opacity:1;vector-effect:none;fill:#bebebe;fill-opacity:0.854902;fill-rule:evenodd;stroke:none;stroke-width:0.5;stroke-linecap:butt;stroke-linejoin:miter;stroke-miterlimit:4;stroke-dasharray:none;stroke-dashoffset:0;stroke-opacity:1;-inkscape-stroke:none;stop-color:#000000;stop-opacity:1"
       d="M 56.25,95 52.5,17.5 H 60 v -5 h -7.5 v -15 h -5 v 15 H 40 v 5 h 7.5 L 43.75,95 50,102.5 Z"
       id="path24"
       sodipodi:nodetypes="cccccccccccccc" /><path
       id="path23"
       style="font-variation-settings:normal;opacity:1;vector-effect:none;fill:#ffffff;fill-opacity:0.854902;fill-rule:evenodd;stroke:none;stroke-width:0.5;stroke-linecap:butt;stroke-linejoin:miter;stroke-miterlimit:4;stroke-dasharray:none;stroke-dashoffset:0;stroke-opacity:1;-inkscape-stroke:none;filter:url(#filter24);stop-color:#000000;stop-opacity:1"
       d="m 47.5,-2.5 v 15 H 40 v 5 h 1 v -4 h 7.5 v -15 h 4 v -1 z m 6,15 v 1 H 60 v -1 z m -6.048828,6 L 43.75,95 50,102.5 50.083984,102.40039 44.75,96 48.5,18.5 Z"
       clip-path="url(#clipPath24)"
       transform="translate(0.43472557,0.15109021)" /><path
       style="font-variation-settings:normal;opacity:1;fill:none;fill-opacity:0.854902;fill-rule:evenodd;stroke:#000000;stroke-width:1;stroke-linecap:butt;stroke-linejoin:miter;stroke-miterlimit:4;stroke-dasharray:none;stroke-dashoffset:0;stroke-opacity:1;stop-color:#000000;stop-opacity:1"
       d="M 56.25,95 52.5,17.5 H 60 v -5 h -7.5 v -15 h -5 v 15 H 40 v 5 h 7.5 L 43.75,95 50,102.5 Z"
       id="path26"
       sodipodi:nodetypes="cccccccccccccc" /></g><path
     style="font-variation-settings:normal;opacity:1;vector-effect:none;fill:#7e7e7e;fill-opacity:1;fill-rule:evenodd;stroke:none;stroke-width:0.5;stroke-linecap:butt;stroke-linejoin:miter;stroke-miterlimit:4;stroke-dasharray:none;stroke-dashoffset:0;stroke-opacity:1;-inkscape-stroke:none;filter:url(#filter31);stop-color:#000000;stop-opacity:1"
     d="m 55,52.5 25,30 V 85 Z"
     id="path31"
     sodipodi:nodetypes="cccc" /><path
     style="font-variation-settings:normal;opacity:1;vector-effect:none;fill:#d2700c;fill-opacity:1;fill-rule:evenodd;stroke:#000000;stroke-width:0.5;stroke-linecap:butt;stroke-linejoin:miter;stroke-miterlimit:4;stroke-dasharray:none;stroke-dashoffset:0;stroke-opacity:1;-inkscape-stroke:none;stop-color:#000000;stop-opacity:1"
     d="M 42.5,75 C 35,67.5 30,50 30,40 30,30 55,30 55,20 v 0 C 55,30 80,30 80,40 80,50 75,67.5 67.5,75 60,82.5 55,85 55,85 55,85 50,82.5 42.5,75 Z"
     id="path28"
     sodipodi:nodetypes="ssccsscs" /><path
     style="fill:#ffd187;fill-opacity:1;fill-rule:evenodd;stroke:none;stroke-width:1px;stroke-linecap:butt;stroke-linejoin:miter;stroke-opacity:1;filter:url(#filter29)"
     d="m 60,33.401087 c 0.828427,0.0069 1.656482,0.05817 2.479441,0.153443 0.987309,0.114303 1.967273,0.292004 2.931854,0.531645 l 2.324816,0.469473 2.330406,0.399742 c 0.821522,0.935165 1.590834,1.91619 2.303162,2.936984 0.764737,1.095899 1.463779,2.237634 2.092127,3.417039 l 0.487267,3.161249 -1.776303,2.275556 C 72.201476,47.259817 71.098508,47.521858 70,47.5 68.074401,47.461684 66.186012,46.517489 65,45 l -2.724669,-1.639373 -1.729965,-1.503028 -2.042869,-2.858004 -0.280243,-2.456558 c -0.18314,-0.453645 -0.216808,-0.96622 -0.09458,-1.439923 0.122227,-0.473703 0.399694,-0.905997 0.77946,-1.214399 C 59.220374,33.634336 59.601461,33.464299 60,33.401087 Z"
     id="path29"
     inkscape:path-effect="#path-effect29"
     inkscape:original-d="m 60,33.401087 c 0.831708,-0.163307 1.673348,-0.08473 2.479441,0.153443 0.957117,0.297677 1.99123,0.210139 2.931854,0.531645 0.729557,0.37011 1.531003,1.279922 2.324816,0.469473 0.716586,-0.512544 1.898654,-0.478525 2.330406,0.399742 0.64151,1.066993 1.517587,1.973897 2.303162,2.936984 0.865345,1.025885 1.387752,2.285915 2.092127,3.417039 0.463135,0.981182 0.537813,2.092317 0.487267,3.161249 -0.285476,0.923004 -0.709009,2.056987 -1.776303,2.275556 C 72.181845,47.035485 70.904793,47.969395 70,47.5 61.89029,43.724117 71.914611,47.309727 65,45 64.216433,44.516323 63.062546,43.850091 62.275331,43.360627 61.413457,43.27561 61.044619,42.438041 60.545366,41.857599 59.921782,40.859057 58.881066,40.15124 58.502497,38.999595 58.161135,38.22315 58.201578,37.367734 58.222254,36.543037 58.111985,35.641665 57.968395,34.410072 58.907132,33.888715 59.256005,33.692467 59.650008,33.595048 60,33.401087 Z"
     sodipodi:nodetypes="ccccccccccccccccc" /><path
     style="font-variation-settings:normal;opacity:1;vector-effect:none;fill:#5d2b00;fill-opacity:1;fill-rule:evenodd;stroke:none;stroke-width:0.5;stroke-linecap:butt;stroke-linejoin:miter;stroke-miterlimit:4;stroke-dasharray:none;stroke-dashoffset:0;stroke-opacity:1;-inkscape-stroke:none;filter:url(#filter30);stop-color:#000000;stop-opacity:1"
     d="M 35,45 C 40,60 47.5,75 55,75 62.5,75 70,65 70,65 70,65 62.5,80 55,82.5 47.5,80 35,65 35,45 Z"
     id="path30"
     sodipodi:nodetypes="csccc" /></svg>
